<svg xmlns="http://www.w3.org/2000/svg" xmlns:cc="http://web.resource.org/cc/" xmlns:svg="http://www.w3.org/2000/svg" xmlns:xlink="http://www.w3.org/1999/xlink" id="svg97" width="48" height="48"><defs id="defs3"><linearGradient id="linearGradient4467"><stop id="stop4469" offset="0" stop-color="#fff" stop-opacity="1"/><stop id="stop4471" offset="1" stop-color="#fff" stop-opacity=".248"/></linearGradient><radialGradient id="radialGradient1539" cx="15.414" cy="13.078" r="6.656" fx="15.414" fy="13.078" gradientTransform="matrix(2.592963,-7.7469e-24,-5.714443e-24,2.252104,-25.05975,-18.941)" gradientUnits="userSpaceOnUse" xlink:href="#linearGradient4467"/><linearGradient id="linearGradient4454"><stop id="stop4456" offset="0" stop-color="#729fcf" stop-opacity=".208"/><stop id="stop4458" offset="1" stop-color="#729fcf" stop-opacity=".676"/></linearGradient><radialGradient id="radialGradient1537" cx="18.241" cy="21.818" r="8.309" fx="18.241" fy="21.818" gradientUnits="userSpaceOnUse" xlink:href="#linearGradient4454"/><linearGradient id="linearGradient2366"><stop id="stop2368" offset="0" stop-color="#fff" stop-opacity="1"/><stop id="stop2374" offset=".5" stop-color="#fff" stop-opacity=".219"/><stop id="stop2370" offset="1" stop-color="#fff" stop-opacity="1"/></linearGradient><linearGradient id="linearGradient1533" x1="18.293" x2="17.501" y1="13.602" y2="25.743" gradientUnits="userSpaceOnUse" xlink:href="#linearGradient2366"/><linearGradient id="linearGradient4440"><stop id="stop4442" offset="0" stop-color="#7d7d7d" stop-opacity="1"/><stop id="stop4448" offset=".5" stop-color="#b1b1b1" stop-opacity="1"/><stop id="stop4444" offset="1" stop-color="#686868" stop-opacity="1"/></linearGradient><linearGradient id="linearGradient1531" x1="30.656" x2="33.219" y1="34" y2="31.063" gradientTransform="matrix(1.334593,0,0,1.291292,-6.973842,-7.460658)" gradientUnits="userSpaceOnUse" xlink:href="#linearGradient4440"/><linearGradient id="linearGradient2846"><stop id="stop2848" offset="0" stop-color="#8a8a8a" stop-opacity="1"/><stop id="stop2850" offset="1" stop-color="#484848" stop-opacity="1"/></linearGradient><linearGradient id="linearGradient1529" x1="27.366" x2="31.336" y1="26.58" y2="30.558" gradientUnits="userSpaceOnUse" xlink:href="#linearGradient2846"/><linearGradient id="linearGradient4477"><stop id="stop4479" offset="0" stop-color="#000" stop-opacity="1"/><stop id="stop4481" offset="1" stop-color="#000" stop-opacity="0"/></linearGradient><radialGradient id="radialGradient1527" cx="24.13" cy="37.968" r="16.529" fx="24.13" fy="37.968" gradientTransform="matrix(1,0,0,0.237968,-6.429755e-15,28.93278)" gradientUnits="userSpaceOnUse" xlink:href="#linearGradient4477"/><radialGradient id="radialGradient6719" cx="605.714" cy="486.648" r="117.143" fx="605.714" fy="486.648" gradientTransform="matrix(-2.774389,0,0,1.969706,112.7623,-872.8854)" gradientUnits="userSpaceOnUse" xlink:href="#linearGradient5060"/><linearGradient id="linearGradient5060"><stop id="stop5062" offset="0" stop-color="#000" stop-opacity="1"/><stop id="stop5064" offset="1" stop-color="#000" stop-opacity="0"/></linearGradient><radialGradient id="radialGradient6717" cx="605.714" cy="486.648" r="117.143" fx="605.714" fy="486.648" gradientTransform="matrix(2.774389,0,0,1.969706,-1891.633,-872.8854)" gradientUnits="userSpaceOnUse" xlink:href="#linearGradient5060"/><linearGradient id="linearGradient5048"><stop id="stop5050" offset="0" stop-color="#000" stop-opacity="0"/><stop id="stop5056" offset=".5" stop-color="#000" stop-opacity="1"/><stop id="stop5052" offset="1" stop-color="#000" stop-opacity="0"/></linearGradient><linearGradient id="linearGradient6715" x1="302.857" x2="302.857" y1="366.648" y2="609.505" gradientTransform="matrix(2.774389,0,0,1.969706,-1892.179,-872.8854)" gradientUnits="userSpaceOnUse" xlink:href="#linearGradient5048"/><linearGradient id="linearGradient9806"><stop id="stop9808" offset="0" stop-color="#000" stop-opacity="1"/><stop id="stop9810" offset="1" stop-color="#000" stop-opacity="0"/></linearGradient><linearGradient id="linearGradient9766"><stop id="stop9768" offset="0" stop-color="#6194cb" stop-opacity="1"/><stop id="stop9770" offset="1" stop-color="#729fcf" stop-opacity="1"/></linearGradient><linearGradient id="linearGradient3096"><stop id="stop3098" offset="0" stop-color="#424242" stop-opacity="1"/><stop id="stop3100" offset="1" stop-color="#777" stop-opacity="1"/></linearGradient><linearGradient id="linearGradient319"><stop id="stop320" offset="0" stop-color="#fff" stop-opacity="1"/><stop id="stop321" offset="1" stop-color="#fff" stop-opacity="0"/></linearGradient><linearGradient id="linearGradient1789"><stop id="stop1790" offset="0" stop-color="#202020" stop-opacity="1"/><stop id="stop1791" offset="1" stop-color="#b9b9b9" stop-opacity="1"/></linearGradient><radialGradient id="radialGradient238" cx="20.706" cy="37.518" r="30.905" fx="20.706" fy="37.518" gradientTransform="matrix(1.055022,-2.734504e-2,0.177703,1.190929,-3.572177,-7.125301)" gradientUnits="userSpaceOnUse" xlink:href="#linearGradient1789"/><linearGradient id="linearGradient3983"><stop id="stop3984" offset="0" stop-color="#fff" stop-opacity=".876"/><stop id="stop3985" offset="1" stop-color="#fffffe" stop-opacity="0"/></linearGradient><linearGradient id="linearGradient491" x1="6.23" x2="9.898" y1="13.773" y2="66.834" gradientTransform="matrix(1.516844,0.000000,0.000000,0.708978,-0.879573,-1.318166)" gradientUnits="userSpaceOnUse" xlink:href="#linearGradient3983"/><linearGradient id="linearGradient322" x1="13.036" x2="12.854" y1="32.567" y2="46.689" gradientTransform="matrix(1.317489,0.000000,0.000000,0.816256,-0.879573,-1.318166)" gradientUnits="userSpaceOnUse" xlink:href="#linearGradient319"/><linearGradient id="linearGradient3104" x1="18.113" x2="15.515" y1="31.368" y2="6.18" gradientUnits="userSpaceOnUse" xlink:href="#linearGradient3096"/><linearGradient id="linearGradient9772" x1="22.176" x2="22.065" y1="36.988" y2="32.05" gradientUnits="userSpaceOnUse" xlink:href="#linearGradient9766"/><radialGradient id="radialGradient9812" cx="24.351" cy="41.592" r="19.136" fx="24.351" fy="41.592" gradientTransform="matrix(1.000000,0.000000,0.000000,0.242494,1.565588e-16,31.50606)" gradientUnits="userSpaceOnUse" xlink:href="#linearGradient9806"/></defs><metadata id="metadata4"/><g id="layer1"><g id="g6707" display="inline" transform="matrix(2.262383e-2,0,0,2.086758e-2,43.38343,36.36962)"><rect id="rect6709" width="1339.633" height="478.357" x="-1559.252" y="-150.697" fill="url(#linearGradient6715)" fill-opacity="1" fill-rule="nonzero" stroke="none" stroke-dasharray="none" stroke-dashoffset="0" stroke-linecap="round" stroke-linejoin="miter" stroke-miterlimit="4" stroke-opacity="1" stroke-width="1" marker-end="none" marker-mid="none" marker-start="none" color="#000" display="inline" opacity=".402" overflow="visible" visibility="visible" style="marker:none"/><path id="path6711" fill="url(#radialGradient6717)" fill-opacity="1" fill-rule="nonzero" stroke="none" stroke-dasharray="none" stroke-dashoffset="0" stroke-linecap="round" stroke-linejoin="miter" stroke-miterlimit="4" stroke-opacity="1" stroke-width="1" marker-end="none" marker-mid="none" marker-start="none" d="M -219.61876,-150.68038 C -219.61876,-150.68038 -219.61876,327.65041 -219.61876,327.65041 C -76.744594,328.55086 125.78146,220.48075 125.78138,88.454235 C 125.78138,-43.572302 -33.655436,-150.68036 -219.61876,-150.68038 z" color="#000" display="inline" opacity=".402" overflow="visible" visibility="visible" style="marker:none"/><path stroke-width="1" style="marker:none" id="path6713" fill="url(#radialGradient6719)" fill-opacity="1" fill-rule="nonzero" stroke="none" stroke-dasharray="none" stroke-dashoffset="0" stroke-linecap="round" stroke-linejoin="miter" stroke-miterlimit="4" stroke-opacity="1" marker-end="none" marker-mid="none" marker-start="none" d="M -1559.2523,-150.68038 C -1559.2523,-150.68038 -1559.2523,327.65041 -1559.2523,327.65041 C -1702.1265,328.55086 -1904.6525,220.48075 -1904.6525,88.454235 C -1904.6525,-43.572302 -1745.2157,-150.68036 -1559.2523,-150.68038 z" color="#000" display="inline" opacity=".402" overflow="visible" visibility="visible"/></g><path id="path216" fill="url(#radialGradient238)" fill-opacity="1" fill-rule="nonzero" stroke="url(#linearGradient3104)" stroke-dasharray="none" stroke-linecap="round" stroke-linejoin="round" stroke-miterlimit="4" stroke-opacity="1" stroke-width="1" d="M 4.5217805,38.687417 C 4.5435766,39.103721 4.9816854,39.520026 5.3979900,39.520026 L 36.725011,39.520026 C 37.141313,39.520026 37.535823,39.103721 37.514027,38.687417 L 36.577584,11.460682 C 36.555788,11.044379 36.117687,10.628066 35.701383,10.628066 L 22.430510,10.628066 C 21.945453,10.628066 21.196037,10.312477 21.028866,9.5214338 L 20.417475,6.6283628 C 20.262006,5.8926895 19.535261,5.5904766 19.118957,5.5904766 L 4.3400975,5.5904766 C 3.9237847,5.5904766 3.5292767,6.0067807 3.5510726,6.4230849 L 4.5217805,38.687417 z"/><path stroke-width="1" style="marker:none" id="path9788" fill="#729fcf" fill-opacity="1" fill-rule="nonzero" stroke="#000" stroke-dasharray="none" stroke-dashoffset="0" stroke-linecap="round" stroke-linejoin="round" stroke-miterlimit="4" stroke-opacity="1" marker-end="none" marker-mid="none" marker-start="none" d="M 5.2265927,22.5625 L 35.492173,22.5625" color="#000" display="inline" opacity=".114" overflow="visible" visibility="visible"/><path stroke-width="1" style="marker:none" id="path9784" fill="#729fcf" fill-opacity="1" fill-rule="nonzero" stroke="#000" stroke-dasharray="none" stroke-dashoffset="0" stroke-linecap="round" stroke-linejoin="round" stroke-miterlimit="4" stroke-opacity="1" marker-end="none" marker-mid="none" marker-start="none" d="M 5.0421736,18.5625 L 35.489104,18.5625" color="#000" display="inline" opacity=".114" overflow="visible" visibility="visible"/><path id="path9778" fill="#729fcf" fill-opacity="1" fill-rule="nonzero" stroke="#000" stroke-dasharray="none" stroke-dashoffset="0" stroke-linecap="round" stroke-linejoin="round" stroke-miterlimit="4" stroke-opacity="1" stroke-width="1" marker-end="none" marker-mid="none" marker-start="none" d="M 4.9806965,12.5625 L 35.488057,12.5625" color="#000" display="inline" opacity=".114" overflow="visible" visibility="visible" style="marker:none"/><path id="path9798" fill="#729fcf" fill-opacity="1" fill-rule="nonzero" stroke="#000" stroke-dasharray="none" stroke-dashoffset="0" stroke-linecap="round" stroke-linejoin="round" stroke-miterlimit="4" stroke-opacity="1" stroke-width="1" marker-end="none" marker-mid="none" marker-start="none" d="M 5.3861577,32.5625 L 35.494881,32.5625" color="#000" display="inline" opacity=".114" overflow="visible" visibility="visible" style="marker:none"/><path stroke-width="1" style="marker:none" id="path9800" fill="#729fcf" fill-opacity="1" fill-rule="nonzero" stroke="#000" stroke-dasharray="none" stroke-dashoffset="0" stroke-linecap="round" stroke-linejoin="round" stroke-miterlimit="4" stroke-opacity="1" marker-end="none" marker-mid="none" marker-start="none" d="M 5.5091398,34.5625 L 35.496893,34.5625" color="#000" display="inline" opacity=".114" overflow="visible" visibility="visible"/><path id="path9782" fill="#729fcf" fill-opacity="1" fill-rule="nonzero" stroke="#000" stroke-dasharray="none" stroke-dashoffset="0" stroke-linecap="round" stroke-linejoin="round" stroke-miterlimit="4" stroke-opacity="1" stroke-width="1" marker-end="none" marker-mid="none" marker-start="none" d="M 5.0421736,16.5625 L 35.489104,16.5625" color="#000" display="inline" opacity=".114" overflow="visible" visibility="visible" style="marker:none"/><path stroke-width="1" style="marker:none" id="path9780" fill="#729fcf" fill-opacity="1" fill-rule="nonzero" stroke="#000" stroke-dasharray="none" stroke-dashoffset="0" stroke-linecap="round" stroke-linejoin="round" stroke-miterlimit="4" stroke-opacity="1" marker-end="none" marker-mid="none" marker-start="none" d="M 5.0114345,14.5625 L 35.48858,14.5625" color="#000" display="inline" opacity=".114" overflow="visible" visibility="visible"/><path stroke-width="1" style="marker:none" id="path9776" fill="#729fcf" fill-opacity="1" fill-rule="nonzero" stroke="#000" stroke-dasharray="none" stroke-dashoffset="0" stroke-linecap="round" stroke-linejoin="round" stroke-miterlimit="4" stroke-opacity="1" marker-end="none" marker-mid="none" marker-start="none" d="M 4.9220969,10.5625 L 20.202912,10.5625" color="#000" display="inline" opacity=".114" overflow="visible" visibility="visible"/><path id="path9774" fill="#729fcf" fill-opacity="1" fill-rule="nonzero" stroke="#000" stroke-dasharray="none" stroke-dashoffset="0" stroke-linecap="round" stroke-linejoin="round" stroke-miterlimit="4" stroke-opacity="1" stroke-width="1" marker-end="none" marker-mid="none" marker-start="none" d="M 4.8737534,8.5624999 L 19.657487,8.5624999" color="#000" display="inline" opacity=".114" overflow="visible" visibility="visible" style="marker:none"/><path id="path9794" fill="#729fcf" fill-opacity="1" fill-rule="nonzero" stroke="#000" stroke-dasharray="none" stroke-dashoffset="0" stroke-linecap="round" stroke-linejoin="round" stroke-miterlimit="4" stroke-opacity="1" stroke-width="1" marker-end="none" marker-mid="none" marker-start="none" d="M 5.3246666,28.5625 L 35.493876,28.5625" color="#000" display="inline" opacity=".114" overflow="visible" visibility="visible" style="marker:none"/><path stroke-width="1" style="marker:none" id="path9792" fill="#729fcf" fill-opacity="1" fill-rule="nonzero" stroke="#000" stroke-dasharray="none" stroke-dashoffset="0" stroke-linecap="round" stroke-linejoin="round" stroke-miterlimit="4" stroke-opacity="1" marker-end="none" marker-mid="none" marker-start="none" d="M 5.2880638,26.5625 L 35.493184,26.5625" color="#000" display="inline" opacity=".114" overflow="visible" visibility="visible"/><path id="path9790" fill="#729fcf" fill-opacity="1" fill-rule="nonzero" stroke="#000" stroke-dasharray="none" stroke-dashoffset="0" stroke-linecap="round" stroke-linejoin="round" stroke-miterlimit="4" stroke-opacity="1" stroke-width="1" marker-end="none" marker-mid="none" marker-start="none" d="M 5.2265927,24.5625 L 35.492173,24.5625" color="#000" display="inline" opacity=".114" overflow="visible" visibility="visible" style="marker:none"/><path id="path9786" fill="#729fcf" fill-opacity="1" fill-rule="nonzero" stroke="#000" stroke-dasharray="none" stroke-dashoffset="0" stroke-linecap="round" stroke-linejoin="round" stroke-miterlimit="4" stroke-opacity="1" stroke-width="1" marker-end="none" marker-mid="none" marker-start="none" d="M 5.1958537,20.5625 L 35.491649,20.5625" color="#000" display="inline" opacity=".114" overflow="visible" visibility="visible" style="marker:none"/><path stroke-width="1" style="marker:none" id="path9796" fill="#729fcf" fill-opacity="1" fill-rule="nonzero" stroke="#000" stroke-dasharray="none" stroke-dashoffset="0" stroke-linecap="round" stroke-linejoin="round" stroke-miterlimit="4" stroke-opacity="1" marker-end="none" marker-mid="none" marker-start="none" d="M 5.3246666,30.5625 L 35.493876,30.5625" color="#000" display="inline" opacity=".114" overflow="visible" visibility="visible"/><path id="path9802" fill="#729fcf" fill-opacity="1" fill-rule="nonzero" stroke="#000" stroke-dasharray="none" stroke-dashoffset="0" stroke-linecap="round" stroke-linejoin="round" stroke-miterlimit="4" stroke-opacity="1" stroke-width="1" marker-end="none" marker-mid="none" marker-start="none" d="M 5.5091398,36.5625 L 35.496893,36.5625" color="#000" display="inline" opacity=".114" overflow="visible" visibility="visible" style="marker:none"/><path id="path219" fill="url(#linearGradient491)" fill-opacity="1" fill-rule="nonzero" stroke="none" stroke-dashoffset="0" stroke-linecap="butt" stroke-linejoin="miter" stroke-miterlimit="4" stroke-opacity="1" stroke-width="1.214" marker-end="none" marker-mid="none" marker-start="none" d="M 6.0683430,38.864023 C 6.0846856,39.176251 5.8874317,39.384402 5.5697582,39.280326 L 5.5697582,39.280326 C 5.2520766,39.176251 5.0330270,38.968099 5.0166756,38.655870 L 4.0689560,6.5913839 C 4.0526131,6.2791558 4.2341418,6.0906134 4.5463699,6.0906134 L 18.968420,6.0429196 C 19.280648,6.0429196 19.900363,6.3433923 20.101356,7.3651014 L 20.674845,10.180636 C 20.247791,9.7153790 20.255652,9.7010175 20.037287,9.0239299 L 19.631192,7.7647478 C 19.412142,7.0371009 18.932991,6.9328477 18.620763,6.9328477 L 5.7329889,6.9328477 C 5.4207613,6.9328477 5.2235075,7.1409999 5.2398583,7.4532364 L 6.1778636,38.968099 L 6.0683430,38.864023 z" color="#000" display="block" opacity=".451" overflow="visible" visibility="visible" style="marker:none"/><g id="g220" fill="#fff" fill-opacity=".757" fill-rule="nonzero" stroke="none" stroke-miterlimit="4" stroke-width=".999" transform="matrix(1.040764,0.000000,5.449252e-2,1.040764,-8.670199,2.670594)"><path id="path221" fill="#fff" fill-opacity=".508" d="M 42.417183,8.5151772 C 42.422267,8.4180642 42.289022,8.2681890 42.182066,8.2681716 L 29.150665,8.2660527 C 29.150665,8.2660527 30.062379,8.8540072 31.352477,8.8622963 L 42.405974,8.9333167 C 42.417060,8.7215889 42.408695,8.6772845 42.417183,8.5151772 z"/></g><path id="path233" fill="url(#linearGradient9772)" fill-opacity="1" fill-rule="nonzero" stroke="#3465a4" stroke-dasharray="none" stroke-dashoffset="0" stroke-linecap="butt" stroke-linejoin="round" stroke-miterlimit="4" stroke-opacity="1" stroke-width="1" marker-end="none" marker-mid="none" marker-start="none" d="M 39.783532,39.510620 C 40.927426,39.466556 41.746608,38.414321 41.830567,37.189615 C 42.622354,25.640928 43.489927,15.957666 43.489927,15.957666 C 43.562082,15.710182 43.322016,15.462699 43.009787,15.462699 L 8.6386304,15.462699 C 8.6386304,15.462699 6.7883113,37.329591 6.7883113,37.329591 C 6.6737562,38.311657 6.3223038,39.134309 5.2384755,39.513304 L 39.783532,39.510620 z" color="#000" display="block" visibility="visible" style="marker:none"/><path id="path304" fill="none" fill-opacity="1" fill-rule="evenodd" stroke="url(#linearGradient322)" stroke-linecap="round" stroke-linejoin="miter" stroke-opacity="1" stroke-width="1" d="M 9.6202444,16.463921 L 42.411343,16.528735 L 40.837297,36.530714 C 40.752975,37.602225 40.386619,37.958929 38.964641,37.958929 C 37.093139,37.958929 10.286673,37.926522 7.569899,37.926522 C 7.8034973,37.605711 7.9036547,36.937899 7.9049953,36.92191 L 9.6202444,16.463921 z" opacity=".466"/><path id="path323" fill="#fff" fill-opacity=".089" fill-rule="evenodd" stroke="none" stroke-linecap="butt" stroke-linejoin="miter" stroke-opacity="1" stroke-width="1" d="M 9.6202481,16.223182 L 8.4536014,31.866453 C 8.4536014,31.866453 16.749756,27.718375 27.119949,27.718375 C 37.490142,27.718375 42.675239,16.223182 42.675239,16.223182 L 9.6202481,16.223182 z"/><g id="g1772" display="inline" transform="matrix(0.796586,0,0,0.724744,2.062831,5.630794)"><path id="path4475" fill="url(#radialGradient1527)" fill-opacity="1" fill-rule="evenodd" stroke="none" stroke-dasharray="none" stroke-dashoffset="0" stroke-linecap="round" stroke-linejoin="miter" stroke-miterlimit="10" stroke-opacity="1" stroke-width="1" marker-end="none" marker-mid="none" marker-start="none" d="M 40.65864 37.967922 A 16.528622 3.9332814 0 1 1 7.6013966,37.967922 A 16.528622 3.9332814 0 1 1 40.65864 37.967922 z" color="#000" display="inline" opacity=".171" overflow="visible" transform="matrix(1.446431,0,0,1.51999,-10.97453,-17.75168)" visibility="visible" style="marker:none"/><path stroke-width="3.006" style="marker:none" id="path2844" fill="#dcdcdc" fill-opacity="1" fill-rule="evenodd" stroke="url(#linearGradient1529)" stroke-dasharray="none" stroke-dashoffset="0" stroke-linecap="round" stroke-linejoin="miter" stroke-miterlimit="10" stroke-opacity="1" marker-end="none" marker-mid="none" marker-start="none" d="M 18.627569,3.1435548 C 10.488439,3.1435548 3.8827682,9.7492259 3.8827682,17.888356 C 3.8827682,26.027486 10.488439,32.633158 18.627569,32.633158 C 22.107124,32.633158 25.17857,31.248765 27.701292,29.230511 C 27.495915,30.237392 27.623257,31.265879 28.457436,31.990436 L 39.42152,41.517846 C 40.654936,42.589175 42.508982,42.448806 43.58031,41.215389 C 44.651638,39.981971 44.511269,38.127927 43.277853,37.056599 L 32.313769,27.529188 C 31.642242,26.945909 30.820891,26.773219 30.007531,26.886466 C 31.994231,24.374044 33.37237,21.337663 33.37237,17.888356 C 33.37237,9.7492259 26.766699,3.1435548 18.627569,3.1435548 z M 18.551954,4.3697381 C 26.191413,4.3697381 31.843729,9.1586886 31.843729,17.661513 C 31.843729,26.336626 26.027039,30.953288 18.551954,30.953288 C 11.249005,30.953288 5.2601806,25.475196 5.2601806,17.661513 C 5.2601806,9.6774061 11.084819,4.369738 18.551954,4.3697381 z" color="#000" display="inline" opacity="1" overflow="visible" visibility="visible"/><path id="path4430" fill="#dcdcdc" fill-opacity="1" fill-rule="evenodd" stroke="none" stroke-dasharray="none" stroke-dashoffset="0" stroke-linecap="round" stroke-linejoin="miter" stroke-miterlimit="10" stroke-opacity="1" stroke-width="1" marker-end="none" marker-mid="none" marker-start="none" d="M 18.602905,3.0803551 C 10.437465,3.0803551 3.8104408,9.7073791 3.8104408,17.872819 C 3.8104408,26.038259 10.437465,32.665283 18.602905,32.665283 C 22.093708,32.665283 25.175082,31.276416 27.70596,29.251638 C 27.499919,30.261774 27.627672,31.293585 28.464547,32.020484 L 39.464073,41.578691 C 40.701476,42.653483 42.561515,42.512661 43.636306,41.275256 C 44.711097,40.037852 44.570274,38.177814 43.332871,37.103023 L 32.333346,27.544815 C 31.659648,26.959651 30.835642,26.786402 30.019653,26.900016 C 32.012775,24.379472 33.395369,21.333276 33.395369,17.872819 C 33.395369,9.7073791 26.768345,3.0803551 18.602905,3.0803551 z M 18.527046,6.2664243 C 24.808154,6.2664245 29.905864,11.364135 29.905864,17.645243 C 29.905864,23.926351 24.808154,29.024061 18.527046,29.024061 C 12.245938,29.024061 7.1482276,23.926351 7.1482276,17.645243 C 7.1482278,11.364135 12.245938,6.2664243 18.527046,6.2664243 z" color="#000" display="inline" opacity="1" overflow="visible" visibility="visible" style="marker:none"/><path id="path4438" fill="url(#linearGradient1531)" fill-opacity="1" fill-rule="evenodd" stroke="none" stroke-dasharray="none" stroke-dashoffset="0" stroke-linecap="round" stroke-linejoin="miter" stroke-miterlimit="10" stroke-opacity="1" stroke-width="1" marker-end="none" marker-mid="none" marker-start="none" d="M 39.507004,41.57769 C 39.028332,39.304503 40.904334,36.766268 43.091057,36.789315 C 43.091057,36.789315 32.33069,27.531204 32.33069,27.531204 C 29.385899,27.474498 28.061188,29.80382 28.553876,32.131126 L 39.507004,41.57769 z" color="#000" display="inline" opacity="1" overflow="visible" visibility="visible" style="marker:none"/><path id="path4450" fill="none" fill-opacity="1" fill-rule="evenodd" stroke="url(#linearGradient1533)" stroke-dasharray="none" stroke-dashoffset="0" stroke-linecap="round" stroke-linejoin="miter" stroke-miterlimit="10" stroke-opacity="1" stroke-width="1.206" marker-end="none" marker-mid="none" marker-start="none" d="M 28.549437 18.920233 A 11.048544 11.048544 0 1 1 6.4523487,18.920233 A 11.048544 11.048544 0 1 1 28.549437 18.920233 z" color="#000" display="inline" opacity="1" overflow="visible" transform="matrix(1.245743,0,0,1.245743,-3.425346,-6.177033)" visibility="visible" style="marker:none"/><rect id="rect4495" width="19.048" height="4.44" x="40.373" y=".141" fill="none" fill-opacity="1" fill-rule="evenodd" stroke="#fff" stroke-dasharray="none" stroke-dashoffset="0" stroke-linecap="round" stroke-linejoin="miter" stroke-miterlimit="10" stroke-opacity="1" stroke-width="1.503" marker-end="none" marker-mid="none" marker-start="none" color="#000" display="inline" opacity=".433" overflow="visible" rx="2.776" ry="2.487" transform="matrix(0.752986,0.658037,-0.648902,0.760872,0,0)" visibility="visible" style="marker:none"/><path id="path4452" fill="url(#radialGradient1537)" fill-opacity="1" fill-rule="evenodd" stroke="#3063a3" stroke-dashoffset="0" stroke-linecap="round" stroke-linejoin="miter" stroke-miterlimit="10" stroke-opacity="1" stroke-width="1.075" marker-end="none" marker-mid="none" marker-start="none" d="M 25.897786 18.478292 A 8.3085051 8.3085051 0 1 1 9.280776,18.478292 A 8.3085051 8.3085051 0 1 1 25.897786 18.478292 z" color="#000" transform="matrix(1.398614,0,0,1.398614,-6.224338,-8.298958)" visibility="visible" style="marker:none"/><path id="path4462" fill="url(#radialGradient1539)" fill-opacity="1" fill-rule="evenodd" stroke="none" stroke-dasharray="none" stroke-dashoffset="0" stroke-linecap="round" stroke-linejoin="miter" stroke-miterlimit="10" stroke-opacity="1" stroke-width="1" marker-end="none" marker-mid="none" marker-start="none" d="M 18.156915,7.3966938 C 12.949325,7.3966938 8.7323681,11.613651 8.7323681,16.821241 C 8.7323681,18.325216 9.1526753,19.709014 9.77954,20.971144 C 11.03192,21.432757 12.362297,21.746827 13.774307,21.746827 C 19.945262,21.746827 24.873589,16.88519 25.254413,10.809698 C 23.523449,8.7641668 21.044374,7.3966938 18.156915,7.3966938 z" color="#000" display="inline" opacity=".834" overflow="visible" visibility="visible" style="marker:none"/></g></g></svg>